<?xml version="1.0" encoding="UTF-8" standalone="no"?>
<!-- Created with Inkscape (http://www.inkscape.org/) -->

<svg
   width="179.98973mm"
   height="150.80016mm"
   viewBox="0 0 179.98973 150.80016"
   version="1.1"
   id="svg1"
   xmlns="http://www.w3.org/2000/svg"
   xmlns:svg="http://www.w3.org/2000/svg">
  <defs
     id="defs1">
    <filter
       id="selectable_hidder_filter"
       width="1"
       height="1"
       x="0"
       y="0"
       style="color-interpolation-filters:sRGB">
      <feComposite
         id="boolops_hidder_primitive"
         result="composite1"
         operator="arithmetic"
         in2="SourceGraphic"
         in="BackgroundImage"
         k1="0"
         k2="0"
         k3="0"
         k4="0" />
    </filter>
    <filter
       id="selectable_hidder_filter-6"
       width="1"
       height="1"
       x="0"
       y="0"
       style="color-interpolation-filters:sRGB">
      <feComposite
         id="boolops_hidder_primitive-5"
         result="composite1"
         operator="arithmetic"
         in2="SourceGraphic"
         in="BackgroundImage"
         k1="0"
         k2="0"
         k3="0"
         k4="0" />
    </filter>
  </defs>
  <g
     id="layer1"
     transform="translate(-21.273437,-21.909104)">
    <rect
       style="display:none;fill:#ffffff;fill-opacity:1;stroke:none;stroke-width:1.1"
       id="rect18"
       width="255.40811"
       height="207.19333"
       x="-7.3842483"
       y="-0.43436754" />
    <rect
       style="fill:#000000;stroke-width:0.156606"
       id="rect4"
       width="4"
       height="150.70924"
       x="21.299999"
       y="22" />
    <rect
       style="fill:#121212;fill-opacity:1;stroke-width:0.15147"
       id="rect4-3"
       width="4"
       height="140.98494"
       x="27.299999"
       y="31.7243" />
    <rect
       style="fill:#242424;fill-opacity:1;stroke-width:0.145801"
       id="rect4-8"
       width="4"
       height="130.6313"
       x="33.300003"
       y="42.077946" />
    <rect
       style="fill:#363636;fill-opacity:1;stroke-width:0.13974"
       id="rect4-3-3"
       width="4"
       height="119.99667"
       x="39.299999"
       y="52.712578" />
    <rect
       style="fill:#474747;fill-opacity:1;stroke-width:0.133464"
       id="rect4-3-3-1"
       width="4"
       height="109.45921"
       x="45.300003"
       y="63.250031" />
    <rect
       style="fill:#000000;fill-opacity:1;stroke-width:0.132095"
       id="rect4-9"
       width="4"
       height="107.2243"
       x="112.5"
       y="23.293173" />
    <rect
       style="fill:#121212;fill-opacity:1;stroke-width:0.135442"
       id="rect4-3-8"
       width="4"
       height="112.72815"
       x="118.5"
       y="28.697063" />
    <path
       style="fill:#242424;fill-opacity:1;stroke-width:0.130383"
       id="rect4-8-1"
       width="4"
       height="104.46291"
       x="124.5"
       y="47.552608"
       d="m 124.5,47.552608 h 4 V 152.01552 h -4 z"
       transform="matrix(1,0,0,1.1150776,0,-17.493579)" />
    <path
       style="fill:#363636;fill-opacity:1;stroke-width:0.136418"
       id="rect4-3-3-16"
       width="4"
       height="114.35941"
       x="130.5"
       y="47.666889"
       transform="matrix(1,0,0,1.0545071,0,-8.8315348)"
       d="m 130.5,47.666942 v 32.83895 h 4 v -32.83895 z m 0,36.632192 v 77.726256 h 4 V 84.299134 Z" />
    <path
       style="fill:#474747;fill-opacity:1;stroke-width:0.143668"
       id="rect4-3-3-1-1"
       width="4"
       height="126.8346"
       x="136.50003"
       y="45.874653"
       d="m 136.5,45.875 v 29.587891 h 4 V 45.875 Z m 0,40.550781 v 86.283199 h 4 V 86.425781 Z" />
    <rect
       style="fill:#474747;fill-opacity:1;stroke-width:0.0855972"
       id="rect4-9-4"
       width="4"
       height="45.023716"
       x="-49.909134"
       y="137.02785"
       transform="rotate(-90)" />
    <path
       style="fill:#363636;fill-opacity:1;stroke-width:0.105482"
       id="rect4-3-8-7"
       width="4"
       height="68.372345"
       x="-43.909134"
       y="102.04562"
       transform="matrix(0,-1,0.82061318,0,46.760016,0)"
       d="m -43.909134,102.04562 h 4 v 68.37235 h -4 z" />
    <path
       style="fill:#242424;fill-opacity:1;stroke-width:0.114095"
       id="rect4-8-1-9"
       width="4"
       height="79.993904"
       x="-37.909134"
       y="101.01438"
       transform="matrix(0,-1,0.83573021,0,40.07923,0)"
       d="m -37.909134,101.01438 h 4 v 79.99391 h -4 z" />
    <path
       style="fill:#121212;fill-opacity:1;stroke-width:0.12008"
       id="rect4-3-3-16-5"
       width="4"
       height="88.605415"
       x="-31.909134"
       y="102.41363"
       transform="matrix(0,-1,0.87705622,0,28.66556,0.12297349)"
       d="m -31.909134,102.41363 h 4 v 88.60541 h -4 z" />
    <path
       style="fill:#000000;fill-opacity:1;stroke-width:0.1249"
       id="rect4-3-3-1-1-5"
       width="4"
       height="95.862663"
       x="-25.909103"
       y="105.83933"
       transform="matrix(0,-1,0.92594104,0,14.499018,0)"
       d="m -25.909103,105.83933 h 4 V 201.702 h -4 z" />
    <rect
       style="fill:#000000;stroke-width:0.236033;filter:url(#selectable_hidder_filter-6)"
       id="rect4-9-9-4"
       width="14.472851"
       height="94.617622"
       x="98.027145"
       y="16.430313"
       transform="matrix(0.08585191,0,0,1,157.59435,52.515738)" />
    <rect
       style="font-variation-settings:normal;opacity:1;vector-effect:none;fill:#474747;fill-opacity:1;stroke-width:0.0789221;stroke-linecap:butt;stroke-linejoin:miter;stroke-miterlimit:4;stroke-dasharray:none;stroke-dashoffset:0;stroke-opacity:1;-inkscape-stroke:none;stop-color:#000000;stop-opacity:1"
       id="rect4-8-1-9-5"
       width="4"
       height="38.27552"
       x="-90.424873"
       y="136.53114"
       transform="rotate(-90)" />
    <rect
       style="font-variation-settings:normal;vector-effect:none;fill:#4d4d4d;fill-opacity:1;stroke-width:0.134515;stroke-linecap:butt;stroke-linejoin:miter;stroke-miterlimit:4;stroke-dasharray:none;stroke-dashoffset:0;stroke-opacity:1;-inkscape-stroke:none;filter:url(#selectable_hidder_filter);stop-color:#000000"
       id="rect4-8-1-9-5-1"
       width="10.96136"
       height="40.575794"
       x="-86.425003"
       y="135.37608"
       transform="rotate(-90)" />
    <rect
       style="fill:#363636;fill-opacity:1;stroke-width:0.0858129"
       id="rect4-3-3-16-5-1"
       width="4"
       height="45.250591"
       x="-84.061668"
       y="131.89761"
       transform="rotate(-90)" />
    <rect
       style="fill:#000000;stroke-width:0.0858129;filter:url(#selectable_hidder_filter)"
       id="rect4-3-3-16-5-1-6"
       width="4"
       height="45.250591"
       x="-80.061996"
       y="121.44376"
       transform="rotate(-90)" />
    <rect
       style="fill:#242424;fill-opacity:1;stroke-width:0.0954262"
       id="rect4-3-3-1-1-5-2-3"
       width="3.9982977"
       height="55.98151"
       x="-78.191002"
       y="124.5"
       transform="rotate(-90)" />
    <path
       style="fill:#000000;fill-opacity:1;stroke-width:0.199762"
       id="rect4-3-0"
       width="4"
       height="245.21692"
       x="13.451143"
       y="14.694231"
       transform="rotate(-30)"
       d="m 13.451252,33.104093 7.91e-4,173.979097 3.998602,2.30859 9e-4,-173.978117 z" />
    <path
       style="fill:#000000;fill-opacity:1;stroke-width:0.199762"
       id="rect4-8-3"
       width="4"
       height="245.21692"
       x="19.451149"
       y="14.694231"
       transform="rotate(-30)"
       d="m 19.450846,36.56796 7.91e-4,173.9791 4.000294,2.30957 -7.92e-4,-173.9791 z" />
    <path
       style="fill:#000000;fill-opacity:1;stroke-width:0.199762"
       id="rect4-3-3-3"
       width="4"
       height="245.21692"
       x="25.451143"
       y="14.694231"
       transform="rotate(-30)"
       d="m 25.452131,40.032804 -9e-4,173.978116 4.000294,2.30957 8.99e-4,-173.978116 z" />
    <path
       style="fill:#000000;stroke-width:0.199762"
       id="rect4-3-3-1-5"
       width="4"
       height="245.21692"
       x="31.451151"
       y="14.694231"
       transform="rotate(-30)"
       d="m 31.450033,43.495694 7.92e-4,173.979096 4.000293,2.30957 9e-4,-173.978119 z" />
    <rect
       style="fill:#000000;stroke-width:0.488365;filter:url(#selectable_hidder_filter)"
       id="rect5"
       width="159.94302"
       height="60.486679"
       x="20.560688"
       y="172.61415" />
    <rect
       style="fill:#000000;stroke-width:0.358351;filter:url(#selectable_hidder_filter)"
       id="rect10"
       width="150.99802"
       height="55.349686"
       x="7.0087891"
       y="-33.263367"
       transform="translate(-2.8422957,-0.14288054)" />
    <path
       style="display:inline;fill:#000000;stroke-width:0.199762"
       id="rect4-6"
       width="4"
       height="245.21692"
       x="7.4511495"
       y="14.694231"
       transform="rotate(-30)"
       d="M 7.4516576,29.640225 7.4507581,203.61835 11.451051,205.92792 11.450259,31.948819 Z" />
  </g>
</svg>
